<svg xmlns="http://www.w3.org/2000/svg" width="500" height="300" viewBox="0 0 500 300">
<title>Distilled BERT Fixed-600 Step Decision</title>
<style>text { font-family: Inter, Arial, sans-serif; }</style>
<rect width="100%" height="100%" fill="white"/>
<text x="250.0" y="22" font-size="14" font-weight="700" text-anchor="middle">Distilled BERT Fixed-600 Step Decision</text>
<rect x="58" y="48" width="420.0" height="202.0" fill="none" stroke="#222222" stroke-width="1"/>
<line x1="58" y1="238.8" x2="478.0" y2="238.8" stroke="#DDDDDD" stroke-width="1"/>
<text x="51" y="242.8" font-size="9" text-anchor="end">200</text>
<line x1="58" y1="149.0" x2="478.0" y2="149.0" stroke="#DDDDDD" stroke-width="1"/>
<text x="51" y="153.0" font-size="9" text-anchor="end">600</text>
<line x1="58" y1="59.2" x2="478.0" y2="59.2" stroke="#DDDDDD" stroke-width="1"/>
<text x="51" y="63.2" font-size="9" text-anchor="end">1000</text>
<rect x="58" y="126.6" width="420.0" height="44.9" fill="#4C78A8" opacity="0.08"/>
<path d="M 83.0 153.5 L 206.3 147.2 L 329.7 150.8 L 453.0 141.6" fill="none" stroke="#4C78A8" stroke-width="2"/>
<path d="M 83.0 149.0 L 206.3 149.0 L 329.7 149.0 L 453.0 149.0" fill="none" stroke="#222222" stroke-width="1.5" stroke-dasharray="5 4"/>
<circle cx="83.0" cy="153.5" r="3" fill="#4C78A8"/>
<circle cx="206.3" cy="147.2" r="3" fill="#4C78A8"/>
<circle cx="329.7" cy="150.8" r="3" fill="#4C78A8"/>
<circle cx="453.0" cy="141.6" r="3" fill="#4C78A8"/>
<circle cx="83.0" cy="149.0" r="3" fill="#222222"/>
<circle cx="206.3" cy="149.0" r="3" fill="#222222"/>
<circle cx="329.7" cy="149.0" r="3" fill="#222222"/>
<circle cx="453.0" cy="149.0" r="3" fill="#222222"/>
<text x="83.0" y="267.0" font-size="10" text-anchor="middle">5</text>
<text x="206.3" y="267.0" font-size="10" text-anchor="middle">10</text>
<text x="329.7" y="267.0" font-size="10" text-anchor="middle">20</text>
<text x="453.0" y="267.0" font-size="10" text-anchor="middle">50</text>
<rect x="361" y="201" width="108" height="40" fill="white" opacity="0.92" stroke="#BBBBBB" stroke-width="0.8"/>
<line x1="369" y1="215" x2="391" y2="215" stroke="#4C78A8" stroke-width="1.6"/>
<circle cx="380" cy="215" r="2.7" fill="#4C78A8"/>
<text x="397" y="218.5" font-size="8">Mean best step</text>
<line x1="369" y1="229" x2="391" y2="229" stroke="#222222" stroke-width="1.6" stroke-dasharray="5 4"/>
<circle cx="380" cy="229" r="2.7" fill="#222222"/>
<text x="397" y="232.5" font-size="8">Median best step</text>
<text x="268.0" y="292" font-size="10" text-anchor="middle">k-shot setting</text>
<text x="17" y="149.0" font-size="10" transform="rotate(-90 17 149.0)">Mini-val best step</text>
<text x="250.0" y="273" font-size="8" text-anchor="middle">Source: 51 distilled BERT diagnostics. Median best step is 600 for every k-shot group.</text>
</svg>