<svg xmlns="http://www.w3.org/2000/svg" width="920" height="520" viewBox="0 0 920 520">
<rect width="100%" height="100%" fill="white"/>
<text x="78" y="30" font-family="Arial" font-size="18" font-weight="700">Agreement Histogram: Minimum Entity-Token Vote Confidence</text>
<text x="78" y="50" font-family="Arial" font-size="11" fill="#555">Source: CoNLL2003 k5 unlabeled_pool hard-argmax ensemble predictions; all three k5 split seeds combined.</text>
<line x1="78" x2="890" y1="438.0" y2="438.0" stroke="#e6e6e6"/>
<text x="68" y="442.0" text-anchor="end" font-family="Arial" font-size="11" fill="#444">0</text>
<line x1="78" x2="890" y1="354.4" y2="354.4" stroke="#e6e6e6"/>
<text x="68" y="358.4" text-anchor="end" font-family="Arial" font-size="11" fill="#444">10</text>
<line x1="78" x2="890" y1="270.9" y2="270.9" stroke="#e6e6e6"/>
<text x="68" y="274.9" text-anchor="end" font-family="Arial" font-size="11" fill="#444">20</text>
<line x1="78" x2="890" y1="187.3" y2="187.3" stroke="#e6e6e6"/>
<text x="68" y="191.3" text-anchor="end" font-family="Arial" font-size="11" fill="#444">30</text>
<line x1="78" x2="890" y1="103.8" y2="103.8" stroke="#e6e6e6"/>
<text x="68" y="107.8" text-anchor="end" font-family="Arial" font-size="11" fill="#444">40</text>
<line x1="78" x2="78" y1="62" y2="438" stroke="#333"/>
<line x1="78" x2="890" y1="438" y2="438" stroke="#333"/>
<rect x="98.3" y="349.4" width="33.3" height="88.6" fill="#7B61FF"/>
<rect x="138.9" y="334.5" width="33.3" height="103.5" fill="#B279A2"/>
<rect x="179.5" y="298.6" width="33.3" height="139.4" fill="#4C78A8"/>
<text x="159.2" y="460" text-anchor="middle" font-family="Arial" font-size="11" fill="#333">0.50-0.59</text>
<rect x="260.7" y="290.9" width="33.3" height="147.1" fill="#7B61FF"/>
<rect x="301.3" y="287.5" width="33.3" height="150.5" fill="#B279A2"/>
<rect x="341.9" y="297.5" width="33.3" height="140.5" fill="#4C78A8"/>
<text x="321.6" y="460" text-anchor="middle" font-family="Arial" font-size="11" fill="#333">0.60-0.69</text>
<rect x="423.1" y="315.2" width="33.3" height="122.8" fill="#7B61FF"/>
<rect x="463.7" y="313.0" width="33.3" height="125.0" fill="#B279A2"/>
<rect x="504.3" y="318.0" width="33.3" height="120.0" fill="#4C78A8"/>
<text x="484.0" y="460" text-anchor="middle" font-family="Arial" font-size="11" fill="#333">0.70-0.79</text>
<rect x="585.5" y="321.1" width="33.3" height="116.9" fill="#7B61FF"/>
<rect x="626.1" y="319.3" width="33.3" height="118.7" fill="#B279A2"/>
<rect x="666.7" y="323.4" width="33.3" height="114.6" fill="#4C78A8"/>
<text x="646.4" y="460" text-anchor="middle" font-family="Arial" font-size="11" fill="#333">0.80-0.89</text>
<rect x="747.9" y="110.7" width="33.3" height="327.3" fill="#7B61FF"/>
<rect x="788.5" y="153.0" width="33.3" height="285.0" fill="#B279A2"/>
<rect x="829.1" y="190.4" width="33.3" height="247.6" fill="#4C78A8"/>
<text x="808.8" y="460" text-anchor="middle" font-family="Arial" font-size="11" fill="#333">0.90-1.00</text>
<text x="484.0" y="492" text-anchor="middle" font-family="Arial" font-size="12" fill="#333">Minimum entity-token vote confidence bin</text>
<text transform="translate(22 250.0) rotate(-90)" text-anchor="middle" font-family="Arial" font-size="12" fill="#333">Share of entity-containing rows (%)</text>
<rect x="83" y="462" width="12" height="12" fill="#7B61FF"/>
<text x="101" y="472" font-family="Arial" font-size="11" fill="#333">Canonical Pat+Perm 10-member</text>
<rect x="348" y="462" width="12" height="12" fill="#B279A2"/>
<text x="366" y="472" font-family="Arial" font-size="11" fill="#333">Pat+Perm+Verb 10-member</text>
<rect x="613" y="462" width="12" height="12" fill="#4C78A8"/>
<text x="631" y="472" font-family="Arial" font-size="11" fill="#333">Combined 20-member</text>
</svg>